<svg height="504pt" viewBox="-68 0 504 504.024" width="504pt" xmlns="http://www.w3.org/2000/svg"><path d="m8.011719 440.039062c-4.421875 0-8.0000002-3.574218-8.0000002-8 0-39.710937 32.3046872-72.015624 72.0156252-72.015624 4.425781 0 8 3.578124 8 8 0 4.425781-3.574219 8-8 8-30.886719 0-56.015625 25.128906-56.015625 56.015624 0 4.425782-3.574219 8-8 8zm0 0"/><path d="m360.011719 440.039062c-4.421875 0-8-3.574218-8-8 0-30.871093-25.128907-56-56-56-4.421875 0-8-3.574218-8-8 0-4.421874 3.578125-8 8-8 39.703125 0 72 32.296876 72 72 0 4.425782-3.574219 8-8 8zm0 0"/><path d="m112.019531 376.023438h-39.992187c-4.421875 0-8-3.574219-8-8 0-4.421876 3.578125-8 8-8h39.992187c4.425781 0 8 3.578124 8 8 0 4.425781-3.574219 8-8 8zm0 0"/><path d="m8.019531 496.023438c-4.414062 0-7.9999998-3.574219-7.9999998-8l-.0078124-55.984376c0-4.414062 3.5781252-8 8.0000002-8 4.417969 0 8 3.578126 8 8l.007812 55.984376c0 4.417968-3.574219 8-8 8zm0 0"/><path d="m16.019531 504.023438c-8.824219 0-15.9999998-7.175782-15.9999998-16 0-4.421876 3.5781248-8 7.9999998-8 4.425781 0 8 3.578124 8 8v.015624c4.425781 0 8 3.570313 8 7.992188 0 4.417969-3.574219 7.992188-8 7.992188zm0 0"/><path d="m352.011719 504.023438c-4.421875 0-8-3.574219-8-8 0-4.421876 3.578125-8 8-8h.015625c0-4.421876 3.570312-8 7.992187-8 4.417969 0 7.992188 3.578124 7.992188 8 0 8.824218-7.175781 16-16 16zm0 0"/><path d="m360.011719 496.023438c-4.421875 0-8-3.574219-8-8v-55.984376c0-4.421874 3.578125-8 8-8 4.425781 0 8 3.578126 8 8v55.984376c0 4.425781-3.574219 8-8 8zm0 0"/><path d="m352.011719 504.023438h-335.992188c-4.421875 0-8-3.574219-8-8 0-4.421876 3.578125-8 8-8h335.992188c4.425781 0 8 3.578124 8 8 0 4.425781-3.574219 8-8 8zm0 0"/><path d="m128.011719 360.023438c-4.421875 0-8-3.574219-8-8v-29.839844c0-4.421875 3.578125-8 8-8 4.425781 0 8 3.578125 8 8v29.839844c0 4.425781-3.574219 8-8 8zm0 0"/><path d="m240.011719 360.023438c-4.421875 0-8-3.574219-8-8v-29.839844c0-4.421875 3.578125-8 8-8 4.425781 0 8 3.578125 8 8v29.839844c0 4.425781-3.574219 8-8 8zm0 0"/><path d="m184.011719 344.023438c-70.574219 0-128-57.421876-128-128 0-4.414063 3.578125-8 8-8 4.425781 0 8 3.585937 8 8 0 61.753906 50.242187 112 112 112 61.761719 0 112-50.238282 112-112 0-4.414063 3.578125-8 8-8 4.425781 0 8 3.585937 8 8 0 70.578124-57.421875 128-128 128zm0 0"/><path d="m64.011719 224.03125c-4.421875 0-8-3.582031-8-8v-40.597656c0-4.417969 3.578125-8 8-8 4.425781 0 8 3.582031 8 8v40.597656c0 4.417969-3.574219 8-8 8zm0 0"/><path d="m304.011719 224.03125c-4.421875 0-8-3.582031-8-8v-40.605469c0-4.417969 3.578125-8 8-8 4.425781 0 8 3.582031 8 8v40.605469c0 4.417969-3.574219 8-8 8zm0 0"/><path d="m140.476562 392.039062c-2.824218 0-5.550781-1.496093-7.015624-4.136718-2.136719-3.871094-.730469-8.742188 3.144531-10.871094l43.542969-24.015625c3.878906-2.128906 8.742187-.71875 10.871093 3.144531 2.136719 3.871094.726563 8.742188-3.144531 10.871094l-43.542969 24.015625c-1.222656.671875-2.550781.992187-3.855469.992187zm0 0"/><path d="m227.546875 392.039062c-1.304687 0-2.632813-.320312-3.855469-.992187l-43.542968-24.015625c-3.863282-2.136719-5.273438-7-3.144532-10.871094 2.136719-3.855468 7-5.265625 10.871094-3.144531l43.546875 24.015625c3.863281 2.136719 5.269531 7 3.140625 10.871094-1.453125 2.640625-4.191406 4.136718-7.015625 4.136718zm0 0"/><path d="m96.011719 392.039062c-2.046875 0-4.097657-.78125-5.65625-2.34375-3.128907-3.128906-3.128907-8.183593 0-11.3125l32-32.015624c3.128906-3.128907 8.183593-3.128907 11.3125 0 3.128906 3.128906 3.128906 8.183593 0 11.3125l-32 32.015624c-1.558594 1.5625-3.609375 2.34375-5.65625 2.34375zm0 0"/><path d="m128.011719 424.023438c-2.046875 0-4.097657-.785157-5.65625-2.34375l-32-31.984376c-3.128907-3.128906-3.128907-8.183593 0-11.3125 3.128906-3.125 8.183593-3.125 11.3125 0l32 31.984376c3.128906 3.128906 3.128906 8.183593 0 11.3125-1.558594 1.558593-3.609375 2.34375-5.65625 2.34375zm0 0"/><path d="m112.011719 440.023438c-2.046875 0-4.097657-.785157-5.65625-2.34375-3.128907-3.128907-3.128907-8.183594 0-11.3125l16-16c3.128906-3.128907 8.183593-3.128907 11.3125 0 3.128906 3.128906 3.128906 8.183593 0 11.3125l-16 16c-1.558594 1.558593-3.609375 2.34375-5.65625 2.34375zm0 0"/><path d="m160.019531 504.023438c-2.441406 0-4.832031-1.101563-6.40625-3.199219l-48-64c-2.65625-3.527344-1.9375-8.542969 1.597657-11.191407 3.527343-2.648437 8.535156-1.945312 11.191406 1.597657l48 64c2.65625 3.53125 1.9375 8.546875-1.597656 11.195312-1.433594 1.078125-3.113282 1.597657-4.785157 1.597657zm0 0"/><path d="m184.011719 504.023438c-3.199219 0-6.222657-1.933594-7.457031-5.101563l-56-144c-1.597657-4.121094.441406-8.753906 4.554687-10.355469 4.101563-1.613281 8.75.441406 10.351563 4.554688l56 144c1.597656 4.117187-.441407 8.75-4.554688 10.351562-.949219.382813-1.925781.550782-2.894531.550782zm0 0"/><path d="m272.011719 392.039062c-2.046875 0-4.097657-.78125-5.65625-2.34375l-32-32.015624c-3.128907-3.128907-3.128907-8.183594 0-11.3125 3.128906-3.128907 8.183593-3.128907 11.3125 0l32 32.015624c3.128906 3.128907 3.128906 8.183594 0 11.3125-1.558594 1.5625-3.609375 2.34375-5.65625 2.34375zm0 0"/><path d="m240.011719 424.023438c-2.046875 0-4.097657-.785157-5.65625-2.34375-3.128907-3.128907-3.128907-8.183594 0-11.3125l32-31.984376c3.128906-3.125 8.183593-3.125 11.3125 0 3.128906 3.128907 3.128906 8.183594 0 11.3125l-32 31.984376c-1.558594 1.558593-3.609375 2.34375-5.65625 2.34375zm0 0"/><path d="m256.011719 440.023438c-2.046875 0-4.097657-.785157-5.65625-2.34375l-16-16c-3.128907-3.128907-3.128907-8.183594 0-11.3125 3.128906-3.128907 8.183593-3.128907 11.3125 0l16 16c3.128906 3.128906 3.128906 8.183593 0 11.3125-1.558594 1.558593-3.609375 2.34375-5.65625 2.34375zm0 0"/><path d="m208.003906 504.023438c-1.671875 0-3.351562-.519532-4.792968-1.597657-3.535157-2.648437-4.253907-7.664062-1.597657-11.195312l48-64c2.65625-3.535157 7.664063-4.238281 11.191407-1.597657 3.535156 2.648438 4.253906 7.664063 1.597656 11.191407l-48 64c-1.558594 2.097656-3.957032 3.199219-6.398438 3.199219zm0 0"/><path d="m184.011719 504.023438c-.96875 0-1.945313-.167969-2.894531-.542969-4.121094-1.601563-6.160157-6.234375-4.554688-10.351563l56-144c1.59375-4.121094 6.242188-6.175781 10.351562-4.554687 4.121094 1.601562 6.160157 6.234375 4.554688 10.355469l-56 144c-1.234375 3.160156-4.257812 5.09375-7.457031 5.09375zm0 0"/><path d="m296.011719 376.039062h-40c-4.421875 0-8-3.574218-8-8 0-4.421874 3.578125-8 8-8h40c4.425781 0 8 3.578126 8 8 0 4.425782-3.574219 8-8 8zm0 0"/><path d="m159.125 440.023438c-1.039062 0-2.097656-.199219-3.113281-.632813-4.070313-1.71875-5.976563-6.414063-4.253907-10.480469l16.886719-39.980468c1.71875-4.082032 6.414063-5.976563 10.480469-4.257813 4.070312 1.71875 5.976562 6.417969 4.253906 10.480469l-16.886718 39.984375c-1.296876 3.054687-4.257813 4.886719-7.367188 4.886719zm0 0"/><path d="m208.898438 440.023438c-3.117188 0-6.078126-1.832032-7.367188-4.886719l-16.886719-40c-1.71875-4.074219.183594-8.761719 4.253907-10.480469 4.066406-1.71875 8.761718.183594 10.480468 4.253906l16.890625 40c1.71875 4.074219-.183593 8.761719-4.257812 10.480469-1.015625.433594-2.070313.632813-3.113281.632813zm0 0"/><path d="m192.011719 400.039062h-16c-4.421875 0-8-3.574218-8-8 0-4.421874 3.578125-8 8-8h16c4.425781 0 8 3.578126 8 8 0 4.425782-3.574219 8-8 8zm0 0"/><path d="m192.011719 400.039062c-1.832031 0-3.679688-.625-5.183594-1.910156-3.367187-2.855468-3.769531-7.914062-.894531-11.273437l16-18.785157c2.855468-3.367187 7.910156-3.773437 11.269531-.894531 3.367187 2.855469 3.769531 7.914063.898437 11.273438l-16 18.78125c-1.585937 1.859375-3.832031 2.808593-6.089843 2.808593zm0 0"/><path d="m176.011719 400.039062c-2.253907 0-4.503907-.949218-6.085938-2.816406l-16-18.78125c-2.867187-3.363281-2.472656-8.417968.894531-11.273437 3.367188-2.871094 8.414063-2.472657 11.273438.894531l16 18.785156c2.863281 3.359375 2.46875 8.417969-.898438 11.273438-1.503906 1.292968-3.351562 1.917968-5.183593 1.917968zm0 0"/><path d="m208.011719 303.976562c-2.046875 0-4.097657-.785156-5.65625-2.34375l-5.65625-5.65625h-25.375l-5.65625 5.65625c-3.128907 3.128907-8.183594 3.128907-11.3125 0-3.128907-3.128906-3.128907-8.183593 0-11.3125l8-8c1.503906-1.503906 3.527343-2.34375 5.65625-2.34375h32c2.128906 0 4.160156.839844 5.65625 2.34375l8 8c3.128906 3.128907 3.128906 8.183594 0 11.3125-1.558594 1.566407-3.609375 2.34375-5.65625 2.34375zm0 0"/><path d="m160.011719 303.976562c-44.113281 0-80-35.886718-80-80 0-4.417968 3.578125-8 8-8 4.425781 0 8 3.582032 8 8 0 35.296876 28.710937 64 64 64 4.425781 0 8 3.574219 8 8 0 4.421876-3.574219 8-8 8zm0 0"/><path d="m88.011719 231.976562c-4.421875 0-8-3.585937-8-8 0-8.824218-7.175781-16-16-16-4.421875 0-8-3.585937-8-8 0-4.417968 3.578125-8 8-8 17.648437 0 32 14.351563 32 32 0 4.414063-3.574219 8-8 8zm0 0"/><path d="m208.011719 303.976562c-4.421875 0-8-3.578124-8-8 0-4.425781 3.578125-8 8-8 35.289062 0 64-28.710937 64-64 0-4.417968 3.578125-8 8-8 4.425781 0 8 3.582032 8 8 0 44.113282-35.886719 80-80 80zm0 0"/><path d="m280.011719 231.976562c-4.421875 0-8-3.585937-8-8 0-17.648437 14.351562-32 32-32 4.425781 0 8 3.582032 8 8 0 4.414063-3.574219 8-8 8-8.824219 0-16 7.175782-16 16 0 4.414063-3.574219 8-8 8zm0 0"/><path d="m184.011719 192.023438c-7.511719 0-184.0000002-.457032-184.0000002-40 0-9.246094 7.0625002-22.648438 68.1679692-32.191407 4.367187-.695312 8.464843 2.304688 9.144531 6.664063.679687 4.359375-2.304688 8.457031-6.671875 9.136718-38.320313 5.992188-51.632813 13.359376-54.320313 16.414063 6.953125 8.953125 66.425781 23.96875 167.6875 23.96875 101.265625 0 160.738281-15.015625 167.6875-23.96875-2.6875-3.054687-16-10.421875-54.328125-16.414063-4.367187-.679687-7.351562-4.777343-6.671875-9.136718.679688-4.359375 4.800781-7.367188 9.144531-6.664063 61.089844 9.542969 68.160157 22.945313 68.160157 32.191407 0 39.542968-176.488281 40-184 40zm0 0"/><path d="m64.019531 160.023438c-.574219 0-1.160156-.0625-1.742187-.191407-4.3125-.960937-7.035156-5.230469-6.082032-9.542969l32.03125-144.023437c.96875-4.320313 5.265626-7.007813 9.546876-6.074219 4.3125.960938 7.03125 5.234375 6.078124 9.542969l-32.03125 144.027344c-.832031 3.726562-4.136718 6.261719-7.800781 6.261719zm0 0"/><path d="m304.003906 160.023438c-3.664062 0-6.96875-2.535157-7.808594-6.261719l-32.023437-144.027344c-.960937-4.308594 1.761719-8.589844 6.070313-9.542969 4.3125-.945312 8.578124 1.753906 9.546874 6.074219l32.03125 144.023437c.953126 4.3125-1.769531 8.589844-6.082031 9.542969-.574219.128907-1.160156.191407-1.734375.191407zm0 0"/><path d="m184.011719 40.015625c-15.886719 0-25.351563-5.367187-34.503907-10.566406-11.113281-6.304688-23.703124-13.449219-53.464843-13.449219-4.421875 0-8-3.585938-8-8s3.578125-8 8-8c33.984375 0 49.167969 8.617188 61.359375 15.535156 8.671875 4.921875 14.945312 8.480469 26.609375 8.480469 11.664062 0 17.921875-3.550781 26.578125-8.472656 12.191406-6.925781 27.367187-15.542969 61.390625-15.542969 4.421875 0 8 3.585938 8 8s-3.578125 8-8 8c-29.800781 0-42.382813 7.152344-53.488281 13.457031-9.136719 5.183594-18.59375 10.558594-34.480469 10.558594zm0 0"/><path d="m304.011719 160.023438h-240c-4.421875 0-8-3.582032-8-8 0-4.414063 3.578125-8 8-8h240c4.425781 0 8 3.585937 8 8 0 4.417968-3.574219 8-8 8zm0 0"/><path d="m296.890625 128.023438h-225.757813c-4.425781 0-8-3.582032-8-8 0-4.414063 3.574219-8 8-8h225.757813c4.425781 0 8 3.585937 8 8 0 4.417968-3.574219 8-8 8zm0 0"/><path d="m292.011719 463.839844c-11.03125 0-20-8.96875-20-20 0-4.425782 3.578125-8 8-8 4.425781 0 8 3.574218 8 8 0 2.199218 1.800781 4 4 4s4-1.800782 4-4c0-4.425782 3.578125-8 8-8 4.425781 0 8 3.574218 8 8 0 11.023437-8.96875 20-20 20zm0 0"/><path d="m292.011719 480.007812c-4.421875 0-8-3.574218-8-8v-16.167968c0-4.425782 3.578125-8 8-8 4.425781 0 8 3.574218 8 8v16.167968c0 4.425782-3.574219 8-8 8zm0 0"/><path d="m280.011719 451.839844c-4.421875 0-8-3.574219-8-8v-20c0-4.425782 3.578125-8 8-8 4.425781 0 8 3.574218 8 8v20c0 4.417968-3.574219 8-8 8zm0 0"/><path d="m304.011719 431.839844h-24c-4.421875 0-8-3.574219-8-8 0-4.425782 3.578125-8 8-8h24c4.425781 0 8 3.574218 8 8 0 4.425781-3.574219 8-8 8zm0 0"/><path d="m304.011719 451.839844c-4.421875 0-8-3.574219-8-8v-20c0-4.425782 3.578125-8 8-8 4.425781 0 8 3.574218 8 8v20c0 4.417968-3.574219 8-8 8zm0 0"/></svg>