<?xml version="1.0" encoding="iso-8859-1"?>
<!-- Generator: Adobe Illustrator 19.0.0, SVG Export Plug-In . SVG Version: 6.00 Build 0)  -->
<svg version="1.1" id="Capa_1" xmlns="http://www.w3.org/2000/svg" xmlns:xlink="http://www.w3.org/1999/xlink" x="0px" y="0px"
	 viewBox="0 0 480 480" style="enable-background:new 0 0 480 480;" xml:space="preserve">
<g>
	<g>
		<g>
			<path d="M424,223.987h-44.16l-59.84-74.8v-17.08c0-0.617-0.072-1.232-0.216-1.832c-2.292-10.582-11.598-18.171-22.424-18.288H216
				v-24c0-4.418-3.582-8-8-8h-32c-4.418,0-8,3.582-8,8v24H88c-10.817,0.128-20.11,7.715-22.4,18.288
				c-0.1,0.423-0.164,0.854-0.192,1.288l-1.28,18.608l-29.752,74.4C14.713,227.339,0.069,244.131,0,263.987v48
				c0.026,22.08,17.92,39.974,40,40h16c0.208-0.03,0.413-0.073,0.616-0.128c4.309,30.586,32.597,51.888,63.183,47.579
				c24.646-3.472,44.031-22.813,47.561-47.451H304c0.208-0.03,0.413-0.073,0.616-0.128c4.298,30.588,32.578,51.9,63.166,47.602
				c24.71-3.472,44.131-22.893,47.602-47.602c0.203,0.055,0.408,0.098,0.616,0.128h8c30.913-0.035,55.965-25.087,56-56v-16
				C479.965,249.074,454.913,224.023,424,223.987z M359.352,223.987H280v-64h28.16L359.352,223.987z M184,95.987h16v16h-16V95.987z
				 M81.296,133.411c0.785-3.094,3.514-5.302,6.704-5.424h209.36c3.103,0.12,5.78,2.216,6.64,5.2v10.8H80.568L81.296,133.411z
				 M264,159.987v64h-16v-64H264z M232,159.987v64h-88v-64H232z M128,159.987v64h-16v-64H128z M77.416,159.987H96v64H51.816
				L77.416,159.987z M112,383.987c-22.091,0-40-17.909-40-40c0-22.091,17.909-40,40-40s40,17.909,40,40
				C151.974,366.068,134.08,383.961,112,383.987z M360,383.987c-22.091,0-40-17.909-40-40c0-22.091,17.909-40,40-40
				c22.091,0,40,17.909,40,40C399.974,366.068,382.08,383.961,360,383.987z M464,295.987c-0.026,22.08-17.92,39.974-40,40h-8
				c-0.208,0.03-0.413,0.073-0.616,0.128c-4.298-30.588-32.578-51.9-63.166-47.602c-24.71,3.472-44.131,22.893-47.602,47.602
				c-0.203-0.055-0.408-0.098-0.616-0.128H167.36c-4.38-30.576-32.717-51.812-63.293-47.433
				c-24.638,3.529-43.979,22.915-47.451,47.561c-0.203-0.055-0.408-0.098-0.616-0.128H40c-13.255,0-24-10.745-24-24v-48
				c0-13.255,10.745-24,24-24h384c22.08,0.026,39.974,17.92,40,40V295.987z"/>
			<path d="M112,319.987c-13.255,0-24,10.745-24,24s10.745,24,24,24s24-10.745,24-24S125.255,319.987,112,319.987z M112,351.987
				c-4.418,0-8-3.582-8-8s3.582-8,8-8s8,3.582,8,8S116.418,351.987,112,351.987z"/>
			<path d="M360,319.987c-13.255,0-24,10.745-24,24s10.745,24,24,24s24-10.745,24-24S373.255,319.987,360,319.987z M360,351.987
				c-4.418,0-8-3.582-8-8s3.582-8,8-8s8,3.582,8,8S364.418,351.987,360,351.987z"/>
			<rect x="136" y="255.987" width="16" height="16"/>
			<rect x="152" y="271.987" width="16" height="16"/>
			<rect x="184" y="271.987" width="16" height="16"/>
			<rect x="168" y="255.987" width="16" height="16"/>
			<rect x="264" y="255.987" width="16" height="16"/>
			<rect x="280" y="271.987" width="16" height="16"/>
			<rect x="312" y="271.987" width="16" height="16"/>
			<rect x="248" y="271.987" width="16" height="16"/>
			<rect x="296" y="255.987" width="16" height="16"/>
			<rect x="200" y="255.987" width="16" height="16"/>
			<rect x="216" y="271.987" width="16" height="16"/>
			<rect x="232" y="255.987" width="16" height="16"/>
			<rect x="184" y="303.987" width="104" height="16"/>
			<rect x="424" y="255.987" width="16" height="16"/>
			<rect x="424" y="303.987" width="16" height="16"/>
			<rect x="32" y="255.987" width="16" height="16"/>
			<rect x="32" y="303.987" width="16" height="16"/>
		</g>
	</g>
</g>
<g>
</g>
<g>
</g>
<g>
</g>
<g>
</g>
<g>
</g>
<g>
</g>
<g>
</g>
<g>
</g>
<g>
</g>
<g>
</g>
<g>
</g>
<g>
</g>
<g>
</g>
<g>
</g>
<g>
</g>
</svg>
