<?xml version="1.0"?>
<svg xmlns="http://www.w3.org/2000/svg" viewBox="0 0 512 512" width="512" height="512"><g id="_18-manual" data-name="18-manual"><g id="linear_color" data-name="linear color"><path d="M432,4H112A44.049,44.049,0,0,0,68,48V448a44.049,44.049,0,0,0,44,44H300v4c-.3,9.289,11.092,15.384,18.656,9.984L336,494.422l17.344,11.562c7.574,5.4,18.949-.7,18.656-9.984v-4h60a12,12,0,0,0,12-12V16A12,12,0,0,0,432,4ZM112,28H420V404H112a43.808,43.808,0,0,0-20,4.8V48A20.023,20.023,0,0,1,112,28Zm0,440a20.023,20.023,0,0,1-20-20c-.222-10.758,9.243-20.222,20-20H300v40Zm224,0a11.984,11.984,0,0,0-6.656,2.016L324,473.578V428h24v45.578l-5.344-3.562A11.984,11.984,0,0,0,336,468Zm84,0H372V428h48Z"/><path d="M256,311.369a48.933,48.933,0,1,0-34.6-14.332A48.618,48.618,0,0,0,256,311.369Zm-17.631-66.564a24.933,24.933,0,1,1-7.3,17.631A24.856,24.856,0,0,1,238.369,244.805Z"/><path d="M152.09,294.721l12.754,1.578,2.754,6.649-7.9,10.134a12,12,0,0,0,.978,15.864l28.815,28.817a12,12,0,0,0,15.865.977l10.134-7.9,6.649,2.754,1.578,12.754a12,12,0,0,0,11.909,10.526h40.752a12,12,0,0,0,11.909-10.526l1.578-12.754,6.649-2.754,10.134,7.9a12,12,0,0,0,15.865-.977l28.815-28.817a12,12,0,0,0,.978-15.864l-7.9-10.134,2.754-6.649,12.754-1.578a12,12,0,0,0,10.527-11.909V242.061a12,12,0,0,0-10.527-11.91l-12.754-1.578-2.754-6.649,7.9-10.134a12,12,0,0,0-.978-15.864l-28.815-28.817a12,12,0,0,0-15.865-.977l-10.134,7.9-6.649-2.754-1.578-12.754A12,12,0,0,0,276.376,148H235.624a12,12,0,0,0-11.909,10.526l-1.578,12.754-6.649,2.754-10.134-7.9a12,12,0,0,0-15.865.977l-28.815,28.817a12,12,0,0,0-.978,15.864l7.9,10.134-2.754,6.649-12.754,1.578a12,12,0,0,0-10.526,11.91v40.751A12,12,0,0,0,152.09,294.721Zm13.474-42.054,9.165-1.134a12,12,0,0,0,9.613-7.317l8.1-19.567a12,12,0,0,0-1.623-11.97l-5.678-7.283L198.96,191.58l7.283,5.679a12,12,0,0,0,11.971,1.624l19.566-8.105a12,12,0,0,0,7.317-9.613L246.231,172H265.77l1.133,9.165a12,12,0,0,0,7.317,9.613l19.565,8.105a12.006,12.006,0,0,0,11.972-1.624l7.283-5.679L326.855,205.4l-5.678,7.283a12,12,0,0,0-1.624,11.97l8.1,19.567a12,12,0,0,0,9.614,7.317l9.165,1.134v19.538l-9.165,1.134a12,12,0,0,0-9.614,7.317l-8.1,19.567a12,12,0,0,0,1.624,11.97l5.678,7.283L313.04,333.292l-7.283-5.679a12.007,12.007,0,0,0-11.972-1.624l-19.565,8.105a12,12,0,0,0-7.317,9.613l-1.133,9.165H246.23l-1.133-9.165a12,12,0,0,0-7.317-9.613l-19.566-8.105a12,12,0,0,0-11.971,1.624l-7.283,5.679-13.815-13.816,5.678-7.283a12,12,0,0,0,1.623-11.97l-8.1-19.567a12,12,0,0,0-9.613-7.317l-9.165-1.134Z"/><path d="M225.417,111.519A12,12,0,0,0,242.4,128.481a19.943,19.943,0,0,1,28.229,0A12,12,0,0,0,287.6,111.519a43.942,43.942,0,0,0-62.187,0Z"/><path d="M200,98.059a11.96,11.96,0,0,0,8.489-3.519,67.859,67.859,0,0,1,96.042,0A12,12,0,1,0,321.51,77.577a91.86,91.86,0,0,0-130,0A12,12,0,0,0,200,98.059Z"/></g></g></svg>
