<svg id="Capa_1" enable-background="new 0 0 512.05 512.05" height="512" viewBox="0 0 512.05 512.05" width="512" xmlns="http://www.w3.org/2000/svg"><g><path d="m437.067 74.982c-160.842-160.519-436.804-46.205-437.018 181.021-2.838 137.596 118.392 258.848 256.001 255.996 227.235-.226 341.536-276.193 181.017-437.017zm-21.213 340.825c-141.993 141.709-385.617 40.789-385.805-159.808-2.505-121.47 104.517-228.513 226.001-225.996 200.605.2 301.513 243.828 159.804 385.804z"/><path d="m196.548 187.001h26v171h30v-201h-56z"/><path d="m385.439 241.913c28.964-32.329 5.493-85.074-38.334-84.911-43.824-.164-67.299 52.59-38.333 84.911-49.497 36.675-24.076 116.066 38.334 116.463 62.413-.399 87.826-79.799 38.333-116.463zm-59.463-33.782c0-11.651 9.479-21.13 21.13-21.13 28.032 1.161 28.024 41.104 0 42.26-11.652 0-21.13-9.479-21.13-21.13zm21.129 120.244c-19.055 0-34.558-15.502-34.558-34.557 1.899-45.844 67.223-45.832 69.114 0 .001 19.055-15.501 34.557-34.556 34.557z"/><path d="m153.548 203.001h-30v28.5h-28.5v30h28.5v28.5h30v-28.5h28.5v-30h-28.5z"/></g></svg>