<svg width="40" height="40" viewBox="0 0 40 40" fill="none" xmlns="http://www.w3.org/2000/svg">
<mask id="path-1-inside-1" fill="white">
<path d="M0 20C-3.65755e-07 24.1838 1.31202 28.2622 3.7514 31.6612C6.19077 35.0602 9.63465 37.6086 13.5983 38.9478C17.5619 40.2869 21.8457 40.3494 25.8467 39.1263C29.8477 37.9033 33.3644 35.4563 35.9018 32.1298C38.4392 28.8033 39.8696 24.7649 39.9915 20.5829C40.1134 16.401 38.9208 12.286 36.5816 8.81738C34.2423 5.34871 30.8742 2.70098 26.9513 1.24686C23.0283 -0.207251 18.7482 -0.394526 14.7132 0.711401L15.2162 2.54646C18.8673 1.54575 22.7402 1.71521 26.2899 3.03098C29.8396 4.34676 32.8873 6.7426 35.0041 9.88126C37.1208 13.0199 38.1999 16.7434 38.0896 20.5275C37.9792 24.3116 36.685 27.9658 34.389 30.9758C32.093 33.9858 28.9108 36.2 25.2905 37.3067C21.6701 38.4134 17.7939 38.3569 14.2073 37.1451C10.6208 35.9334 7.50454 33.6274 5.29724 30.5518C3.08995 27.4761 1.90274 23.7857 1.90274 20H0Z"/>
</mask>
<path d="M0 20C-3.65755e-07 24.1838 1.31202 28.2622 3.7514 31.6612C6.19077 35.0602 9.63465 37.6086 13.5983 38.9478C17.5619 40.2869 21.8457 40.3494 25.8467 39.1263C29.8477 37.9033 33.3644 35.4563 35.9018 32.1298C38.4392 28.8033 39.8696 24.7649 39.9915 20.5829C40.1134 16.401 38.9208 12.286 36.5816 8.81738C34.2423 5.34871 30.8742 2.70098 26.9513 1.24686C23.0283 -0.207251 18.7482 -0.394526 14.7132 0.711401L15.2162 2.54646C18.8673 1.54575 22.7402 1.71521 26.2899 3.03098C29.8396 4.34676 32.8873 6.7426 35.0041 9.88126C37.1208 13.0199 38.1999 16.7434 38.0896 20.5275C37.9792 24.3116 36.685 27.9658 34.389 30.9758C32.093 33.9858 28.9108 36.2 25.2905 37.3067C21.6701 38.4134 17.7939 38.3569 14.2073 37.1451C10.6208 35.9334 7.50454 33.6274 5.29724 30.5518C3.08995 27.4761 1.90274 23.7857 1.90274 20H0Z" stroke="#F02A43" stroke-width="4" mask="url(#path-1-inside-1)"/>
<path d="M29.7071 20.7071C30.0976 20.3166 30.0976 19.6834 29.7071 19.2929L23.3431 12.9289C22.9526 12.5384 22.3195 12.5384 21.9289 12.9289C21.5384 13.3195 21.5384 13.9526 21.9289 14.3431L27.5858 20L21.9289 25.6569C21.5384 26.0474 21.5384 26.6805 21.9289 27.0711C22.3195 27.4616 22.9526 27.4616 23.3431 27.0711L29.7071 20.7071ZM11 21H29V19H11V21Z" fill="#F02A43"/>
</svg>
