<svg id="Capa_1" enable-background="new 0 0 64 64" height="512" viewBox="0 0 64 64" width="512" xmlns="http://www.w3.org/2000/svg"><g transform="translate(-1)"><path id="Shape" d="m60.793 18.291c-1.931.608-3.734 1.174-5.431 1.771-5.505 1.942-6.401.939-8.183-1.067-1.43-1.684-3.221-3.026-5.238-3.926-1.621-.807-3.314-1.46-5.057-1.952l.384-1.92c.158-.937-.107-1.895-.726-2.617-.618-.721-1.525-1.131-2.475-1.117h-5.793c-2.654 0-5.123 1.362-6.54 3.606l-.875 1.419c-8.866 2.272-16.665 9.175-19.215 11.575-.421.403-.659.959-.659 1.542 0 .582.238 1.139.659 1.542 2.655 2.505 5.533 4.762 8.599 6.743-.766 1.15-.927 2.6-.434 3.89.494 1.29 1.582 2.262 2.919 2.607v11.885c0 1.178-.955 2.134-2.134 2.134s-2.134-.955-2.134-2.134v-4.268c.003-.433-.257-.825-.658-.992s-.861-.074-1.167.234l-1.067 1.067c-.308.305-.4.766-.234 1.167.166.4.558.66.992.658v2.134c.011 1.77 1.114 3.349 2.772 3.969s3.526.153 4.697-1.174c1.171 1.327 3.039 1.795 4.697 1.174 1.658-.62 2.76-2.2 2.772-3.969v-2.134c.433.003.825-.257.992-.658.166-.4.074-.861-.234-1.167l-1.067-1.067c-.305-.308-.766-.4-1.167-.234-.4.166-.66.558-.658.992v4.268c0 1.178-.955 2.134-2.134 2.134s-2.134-.955-2.134-2.134v-11.885c1.35-.354 2.442-1.346 2.923-2.657 2.057.801 4.209 1.335 6.401 1.59 3.681 4.086 8.439 4.108 13.411 1.899 1.499-.645 2.196-2.381 1.558-3.884.97-.358 1.918-.775 2.838-1.248.563 1.08 1.561 1.868 2.742 2.166v14.019c0 1.178-.955 2.134-2.134 2.134-1.178 0-2.134-.955-2.134-2.134v-4.268c.003-.433-.257-.825-.658-.992-.4-.166-.861-.074-1.167.234l-1.067 1.067c-.308.305-.4.766-.234 1.167.166.4.558.66.992.658v2.134c.011 1.77 1.114 3.349 2.772 3.969s3.526.153 4.697-1.174c1.171 1.327 3.039 1.795 4.697 1.174 1.658-.62 2.76-2.2 2.772-3.969v-2.134c.433.003.825-.257.992-.658.166-.4.074-.861-.234-1.167l-1.067-1.067c-.305-.308-.766-.4-1.167-.234-.4.166-.66.558-.658.992v4.268c0 1.178-.955 2.134-2.134 2.134-1.178 0-2.134-.955-2.134-2.134v-14.019c1.284-.338 2.338-1.255 2.85-2.481.512-1.225.425-2.62-.237-3.771 2.497-.064 4.076 1.067 10.498 4.001 1.286.556 2.783.228 3.721-.813.937-1.041 1.106-2.565.419-3.786l-1.718-3.201c-.192-.356-.192-.785 0-1.142l2.198-4.065c.633-1.164.502-2.596-.332-3.626s-2.204-1.455-3.475-1.078zm-32.519-8.695h5.793c.335-.001.654.143.875.395.405.491.235.843-.085 2.657-3.622-.854-7.361-1.099-11.064-.725 1.038-1.446 2.702-2.31 4.481-2.327zm-14.478 28.806c-.804.002-1.542-.448-1.907-1.165s-.296-1.578.178-2.228c1.238.715 2.721 1.472 3.755 1.931-.288.874-1.105 1.463-2.026 1.462zm34.141-4.267c-.01 1-.713 1.86-1.691 2.067-.979.207-1.97-.293-2.384-1.203 2.134-1.366 2.433-2.016 3.318-2.475.475.401.751.989.757 1.611zm14.787-12.142-2.198 4.076c-.545.997-.545 2.203 0 3.201l1.718 3.201c.249.416.205.944-.108 1.313s-.828.498-1.279.319c-1.632-.736-7.468-3.595-9.197-3.98-1.92-.437-4.812-.331-6.625 1.376-2.013 1.77-4.36 3.119-6.903 3.969-1.263-2.251-3.247-4.01-5.633-4.993-.548-.181-1.141.107-1.338.65-.196.543.075 1.144.612 1.356 2.646.95 4.396 3.595 5.399 5.644.114.219.128.475.041.706s-.269.412-.499.5c-6.263 2.774-10.392.992-13.219-4.79-.259-.53-.899-.75-1.43-.491s-.75.899-.491 1.43c.235.459.501.96.8 1.462-6.988-1.474-14.083-6.403-19.204-11.279 2.881-2.753 13.08-11.736 23.258-11.736 5.037-.081 10.026.992 14.584 3.137 3.617 1.856 3.702 2.593 5.58 4.46 2.913 2.945 6.732 1.6 9.517.608 1.622-.555 3.201-1.067 5.334-1.75.428-.097.874.059 1.147.403.274.344.326.813.134 1.208z"/><path d="m18.064 19.198c-2.946 0-5.334 2.388-5.334 5.334s2.388 5.334 5.334 5.334 5.334-2.388 5.334-5.334-2.388-5.334-5.334-5.334zm0 8.535c-1.768 0-3.201-1.433-3.201-3.201s1.433-3.201 3.201-3.201 3.201 1.433 3.201 3.201-1.433 3.201-3.201 3.201z"/><path d="m28.306 18.217c-.261.112-.466.324-.57.589-.104.264-.099.559.016.82.898 2.179 1.193 4.56.854 6.892-.082.589.328 1.134.918 1.216.589.082 1.134-.328 1.216-.918.392-2.723.046-5.501-1.003-8.044-.112-.266-.328-.476-.597-.58-.271-.106-.571-.096-.834.025z"/><path d="m35.572 18.345c-.468.35-.568 1.011-.224 1.483 1.707 2.326 2.134 5.911 1.792 8.823-.043.282.029.569.2.797.17.228.425.379.707.419.583.082 1.123-.324 1.206-.907.48-3.51-.16-7.639-2.198-10.381-.347-.471-1.008-.576-1.483-.234z"/><circle id="Oval" cx="18.064" cy="24.533" r="1.067"/></g></svg>