<svg height="512pt" viewBox="-38 0 512 512.00126" width="512pt" xmlns="http://www.w3.org/2000/svg"><path d="m168.792969 147.324219c0 5.074219-4.109375 9.183593-9.183594 9.183593s-9.183594-4.109374-9.183594-9.183593 4.109375-9.183594 9.183594-9.183594 9.183594 4.109375 9.183594 9.183594zm0 0"/><path d="m374.859375 387.363281c-10.039063 0-19.515625 2.429688-27.898437 6.703125v-178.726562c0-3.722656-1.3125-7.136719-3.492188-9.824219 1.992188-6.125 3.011719-12.503906 3.011719-19.039063 0-15.367187-5.664063-29.421874-14.992188-40.226562 7.445313-17.320312 6.882813-31.925781-1.765625-40.527344-6.851562-6.8125-17.449218-8.574218-30.296875-5.160156-1.507812-12.933594-6.925781-22.011719-15.609375-25.910156-9.054687-4.0625-19.859375-1.773438-30.941406 6.410156-6.785156-13.46875-16.304688-21.078125-26.78125-21.140625-.042969 0-.089844 0-.136719 0-18.152343 0-32.71875 22.40625-36.738281 54.847656-7.867188-3.648437-16.617188-5.699219-25.839844-5.699219-15.933594 0-31.148437 6.226563-42.515625 17.035157-54.527343-100.601563-86.070312-135.789063-109.164062-123.882813-25.679688 13.238282-9.984375 68.765625 56.042969 197.5h-2.273438c-8.613281 0-15.617188 7.003906-15.617188 15.617188v281.042968c0 8.609376 7.003907 15.617188 15.617188 15.617188h185.9375c4.15625 0 7.527344-3.371094 7.527344-7.527344s-3.371094-7.523437-7.527344-7.523437h-185.9375c-.316406 0-.570312-.253907-.570312-.566407v-281.042968c0-.3125.253906-.566406.570312-.566406h41.71875v74.511718c0 50.296875 40.917969 91.21875 91.214844 91.21875s91.21875-40.921875 91.21875-91.21875v-74.511718h41.71875c.3125 0 .566406.253906.566406.566406v189.511718c-11.515625 11.207032-18.6875 26.855469-18.6875 44.15625 0 17.300782 7.171875 32.949219 18.6875 44.152344v3.222656c0 .3125-.253906.570313-.566406.570313h-44.53125c-4.15625 0-7.523438 3.367187-7.523438 7.523437s3.367188 7.523438 7.523438 7.523438h44.53125c6.191406 0 11.535156-3.625 14.058594-8.859375 8.757812 4.785156 18.796874 7.507813 29.460937 7.507813 33.988281 0 61.640625-27.652344 61.640625-61.640626 0-33.992187-27.652344-61.644531-61.640625-61.644531zm-69.136719-187.640625c-7.105468-24.988281-29.246094-42.910156-55.375-44.542968 8.710938-9.558594 21.203125-15.296876 34.492188-15.296876 25.6875 0 46.589844 20.902344 46.589844 46.589844 0 4.539063-.652344 8.972656-1.917969 13.25zm-102.683594 0c6.839844-17.597656 23.875-29.628906 43.410157-29.628906 19.523437 0 36.570312 12.035156 43.414062 29.628906zm22.921876-124.753906h.039062c5.449219.035156 11.527344 7.078125 15.855469 18.386719 1.132812 2.957031 3.648437 5.15625 6.730469 5.878906 3.082031.722656 6.3125-.125 8.648437-2.265625 8.003906-7.355469 15.828125-10.648438 20.417969-8.585938 4.425781 1.988282 7.101562 9.335938 7.152344 19.660157.015624 3.140625 1.574218 6.078125 4.167968 7.847656s5.890625 2.148437 8.824219 1.019531c9.847656-3.804687 17.816406-3.992187 21.3125-.515625 3.289063 3.269531 3.328125 10.375.390625 19.136719-9.882812-6.746094-21.820312-10.695312-34.660156-10.695312-22.605469 0-43.476563 12.546874-54.191406 32.257812-2.289063.605469-4.527344 1.339844-6.707032 2.195312-2.644531-14.035156-10.050781-26.398437-20.480468-35.347656 1.945312-29.074218 13.109374-48.972656 22.5-48.972656zm-62.585938 49.148438c24.46875 0 44.578125 18.964843 46.4375 42.964843-10.722656 7.914063-18.828125 19.261719-22.628906 32.640625h-28.140625c-4.96875-9.996094-10.394531-20.707031-16.167969-31.902344-5.015625-9.726562-9.855469-18.976562-14.539062-27.789062 8.804687-10.027344 21.582031-15.914062 35.039062-15.914062zm-71.46875-19.089844c-11.550781 4.988281-20.445312 6.832031-25.035156 6.941406 2.679687-3.621094 9.128906-9.621094 19.742187-16.089844 1.734375 2.964844 3.5 6.015625 5.292969 9.148438zm-8.007812 93.203125c-28.890626-56.039063-48.117188-97.964844-58.773438-128.183594-16.417969-46.5625-8.320312-53.527344-6.53125-54.449219 1.792969-.921875 12.164062-3.480468 40.570312 36.898438 6.074219 8.632812 12.644532 18.773437 19.757813 30.476562-12.429687 7.628906-34.140625 23.386719-27.210937 36.824219 2.734374 5.304687 8.296874 7.214844 14.890624 7.214844 10.796876-.003907 24.347657-5.125 32.726563-8.824219 4.148437 7.453125 18.125 33.445312 20.273437 37.53125-12.121093 5.386719-21.46875 7.382812-26.25 7.503906.464844-.632812 1.078126-1.386718 1.871094-2.257812 2.800782-3.070313 2.582032-7.832032-.488281-10.632813-3.066406-2.796875-7.828125-2.582031-10.628906.488281-8.660157 9.492188-8.027344 16.238282-5.972657 20.222657 2.609376 5.0625 8.09375 7.105469 15.042969 7.105469 9.574219 0 21.933594-3.882813 33.410157-9.066407.964843 1.859375 15.632812 30.636719 15.632812 30.636719h-57.550781zm190.671874 91.054687c0 42-34.167968 76.167969-76.167968 76.167969-41.996094 0-76.164063-34.167969-76.164063-76.167969v-74.511718h13.355469v23.164062c0 4.15625 3.371094 7.523438 7.523438 7.523438 4.15625 0 7.527343-3.367188 7.527343-7.523438v-23.164062s3.695313.007812 3.738281.007812c.054688 0 91.78125-.007812 91.78125-.007812v74.511718c0 26.335938-21.425781 47.757813-47.761718 47.757813-26.332032 0-47.757813-21.421875-47.757813-47.757813v-15.65625c0-4.15625-3.367187-7.527344-7.523437-7.527344s-7.527344 3.371094-7.527344 7.527344v15.65625c0 34.632813 28.179688 62.808594 62.8125 62.808594s62.808594-28.175781 62.808594-62.808594v-74.511718h13.355468zm100.289063 206.3125c-25.691406 0-46.589844-20.902344-46.589844-46.589844 0-25.691406 20.898438-46.59375 46.589844-46.59375s46.589844 20.902344 46.589844 46.59375c0 25.6875-20.898438 46.589844-46.589844 46.589844zm0 0"/><path d="m407.871094 463.933594c0 5.070312-4.109375 9.183594-9.183594 9.183594s-9.183594-4.113282-9.183594-9.183594c0-5.074219 4.109375-9.1875 9.183594-9.1875s9.183594 4.113281 9.183594 9.1875zm0 0"/></svg>